<?xml version="1.0" encoding="UTF-8" standalone="no"?>
<svg
   xmlns:dc="http://purl.org/dc/elements/1.1/"
   xmlns:cc="http://creativecommons.org/ns#"
   xmlns:rdf="http://www.w3.org/1999/02/22-rdf-syntax-ns#"
   xmlns:svg="http://www.w3.org/2000/svg"
   xmlns="http://www.w3.org/2000/svg"
   xmlns:sodipodi="http://sodipodi.sourceforge.net/DTD/sodipodi-0.dtd"
   xmlns:inkscape="http://www.inkscape.org/namespaces/inkscape"
   data-name="Layer 1"
   viewBox="0 0 1024 1280"
   x="0px"
   y="0px"
   version="1.1"
   id="svg10"
   sodipodi:docname="add.svg"
   inkscape:version="1.0.2-2 (e86c870879, 2021-01-15)">
  <metadata
     id="metadata16">
    <rdf:RDF>
      <cc:Work
         rdf:about="">
        <dc:format>image/svg+xml</dc:format>
        <dc:type
           rdf:resource="http://purl.org/dc/dcmitype/StillImage" />
      </cc:Work>
    </rdf:RDF>
  </metadata>
  <defs
     id="defs14" />
  <sodipodi:namedview
     pagecolor="#ffffff"
     bordercolor="#666666"
     borderopacity="1"
     objecttolerance="10"
     gridtolerance="10"
     guidetolerance="10"
     inkscape:pageopacity="0"
     inkscape:pageshadow="2"
     inkscape:window-width="1920"
     inkscape:window-height="1017"
     id="namedview12"
     showgrid="false"
     inkscape:zoom="5.3125"
     inkscape:cx="26.574586"
     inkscape:cy="1036.6871"
     inkscape:window-x="-8"
     inkscape:window-y="-8"
     inkscape:window-maximized="1"
     inkscape:current-layer="svg10" />
  <title
     id="title2">icon-01</title>
  <path
     fill="#000000"
     d="M881.777778 0h-739.555556c-79.644444 0-142.222222 62.577778-142.222222 142.222222v739.555556c0 79.644444 62.577778 142.222222 142.222222 142.222222h739.555556c79.644444 0 142.222222-62.577778 142.222222-142.222222v-739.555556c0-79.644444-62.577778-142.222222-142.222222-142.222222z m85.333333 881.777778c0 45.511111-39.822222 85.333333-85.333333 85.333333h-739.555556c-45.511111 0-85.333333-39.822222-85.333333-85.333333v-739.555556c0-45.511111 39.822222-85.333333 85.333333-85.333333h739.555556c45.511111 0 85.333333 39.822222 85.333333 85.333333v739.555556zM807.822222 483.555556h-267.377778v-267.377778c0-17.066667-11.377778-28.444444-28.444444-28.444445s-28.444444 11.377778-28.444444 28.444445v267.377778h-261.688889c-17.066667 0-28.444444 11.377778-28.444445 28.444444s11.377778 28.444444 28.444445 28.444444h261.688889v261.688889c0 17.066667 11.377778 28.444444 28.444444 28.444445s28.444444-11.377778 28.444444-28.444445v-261.688889h267.377778c11.377778 0 28.444444-11.377778 28.444445-28.444444s-11.377778-28.444444-28.444445-28.444444z"
     id="path4" />
</svg>
