<?xml version="1.0" encoding="UTF-8" standalone="no"?>
<svg
   xmlns:dc="http://purl.org/dc/elements/1.1/"
   xmlns:cc="http://creativecommons.org/ns#"
   xmlns:rdf="http://www.w3.org/1999/02/22-rdf-syntax-ns#"
   xmlns:svg="http://www.w3.org/2000/svg"
   xmlns="http://www.w3.org/2000/svg"
   xmlns:sodipodi="http://sodipodi.sourceforge.net/DTD/sodipodi-0.dtd"
   xmlns:inkscape="http://www.inkscape.org/namespaces/inkscape"
   data-name="Layer 1"
   viewBox="0 0 1024 1280"
   x="0px"
   y="0px"
   version="1.1"
   id="svg10"
   sodipodi:docname="add.svg"
   inkscape:version="1.0.2-2 (e86c870879, 2021-01-15)">
  <metadata
     id="metadata16">
    <rdf:RDF>
      <cc:Work
         rdf:about="">
        <dc:format>image/svg+xml</dc:format>
        <dc:type
           rdf:resource="http://purl.org/dc/dcmitype/StillImage" />
      </cc:Work>
    </rdf:RDF>
  </metadata>
  <defs
     id="defs14" />
  <sodipodi:namedview
     pagecolor="#ffffff"
     bordercolor="#666666"
     borderopacity="1"
     objecttolerance="10"
     gridtolerance="10"
     guidetolerance="10"
     inkscape:pageopacity="0"
     inkscape:pageshadow="2"
     inkscape:window-width="1920"
     inkscape:window-height="1017"
     id="namedview12"
     showgrid="false"
     inkscape:zoom="0.6640625"
     inkscape:cx="74.035845"
     inkscape:cy="535.52985"
     inkscape:window-x="-8"
     inkscape:window-y="-8"
     inkscape:window-maximized="1"
     inkscape:current-layer="svg10"
     inkscape:document-rotation="0" />
  <title
     id="title2">icon-01</title>
  <path
     id="path4"
     d="m 512,187.73242 c -17.06667,0 -28.44531,11.37865 -28.44531,28.44531 v 267.37696 h -261.6875 c -17.06667,0 -28.44531,11.37864 -28.44531,28.44531 -5e-5,17.06667 11.37864,28.44531 28.44531,28.44531 h 261.6875 v 261.6875 c 0,17.06667 11.37864,28.44531 28.44531,28.44531 17.06667,10e-6 28.44531,-11.37864 28.44531,-28.44531 v -261.6875 h 267.37696 c 11.37777,0 28.44531,-11.37864 28.44531,-28.44531 0,-17.06667 -11.37865,-28.44531 -28.44531,-28.44531 H 540.44531 V 216.17773 c 0,-17.06666 -11.37864,-28.44531 -28.44531,-28.44531 z m 454.63867,783.42969 c -0.11478,0.007 -0.22892,0.0187 -0.34375,0.0254 -0.0466,0.0563 -0.0981,0.11571 -0.14453,0.17188 0.0754,-0.006 0.15618,-0.0151 0.23242,-0.0215 0.0841,-0.0565 0.17147,-0.11893 0.25586,-0.17578 z" />
</svg>
