<?xml version="1.0" encoding="UTF-8" standalone="no"?>
<svg
   xmlns:dc="http://purl.org/dc/elements/1.1/"
   xmlns:cc="http://creativecommons.org/ns#"
   xmlns:rdf="http://www.w3.org/1999/02/22-rdf-syntax-ns#"
   xmlns:svg="http://www.w3.org/2000/svg"
   xmlns="http://www.w3.org/2000/svg"
   xmlns:sodipodi="http://sodipodi.sourceforge.net/DTD/sodipodi-0.dtd"
   xmlns:inkscape="http://www.inkscape.org/namespaces/inkscape"
   viewBox="0 0 56 77.5375"
   x="0px"
   y="0px"
   version="1.1"
   id="svg20"
   sodipodi:docname="bin.svg"
   inkscape:version="1.0.2-2 (e86c870879, 2021-01-15)">
  <metadata
     id="metadata26">
    <rdf:RDF>
      <cc:Work
         rdf:about="">
        <dc:format>image/svg+xml</dc:format>
        <dc:type
           rdf:resource="http://purl.org/dc/dcmitype/StillImage" />
      </cc:Work>
    </rdf:RDF>
  </metadata>
  <defs
     id="defs24" />
  <sodipodi:namedview
     pagecolor="#ffffff"
     bordercolor="#666666"
     borderopacity="1"
     objecttolerance="10"
     gridtolerance="10"
     guidetolerance="10"
     inkscape:pageopacity="0"
     inkscape:pageshadow="2"
     inkscape:window-width="1920"
     inkscape:window-height="1017"
     id="namedview22"
     showgrid="false"
     inkscape:zoom="10.962438"
     inkscape:cx="28"
     inkscape:cy="16.875808"
     inkscape:window-x="-8"
     inkscape:window-y="-8"
     inkscape:window-maximized="1"
     inkscape:current-layer="svg20" />
  <title
     id="title2">bin</title>
  <g
     data-name="Layer 2"
     id="g14">
    <g
       data-name="Layer 1"
       id="g12">
      <path
         d="M17.66,47.12A2.15,2.15,0,0,0,19.81,45V27.73a2.15,2.15,0,1,0-4.3,0V45A2.15,2.15,0,0,0,17.66,47.12Z"
         id="path4" />
      <path
         d="M28,47.12A2.15,2.15,0,0,0,30.15,45V27.73a2.15,2.15,0,1,0-4.3,0V45A2.15,2.15,0,0,0,28,47.12Z"
         id="path6" />
      <path
         d="M38.34,47.12A2.15,2.15,0,0,0,40.49,45V27.73a2.15,2.15,0,1,0-4.3,0V45A2.15,2.15,0,0,0,38.34,47.12Z"
         id="path8" />
      <path
         d="M53.85,10.41H40.09L38.32,4.48a6.32,6.32,0,0,0-6-4.48H23.69a6.32,6.32,0,0,0-6,4.48l-1.77,5.93H2.15a2.15,2.15,0,0,0,0,4.3H4.71V56.1A5.94,5.94,0,0,0,10.64,62H45.43a5.94,5.94,0,0,0,5.93-5.93V14.64h2.49A2.15,2.15,0,0,0,56,12.49,2.09,2.09,0,0,0,53.85,10.41Zm-32-4.7A2,2,0,0,1,23.69,4.3h8.69a1.92,1.92,0,0,1,1.87,1.42l1.38,4.69H20.36ZM47.06,56.54h-.15a1.67,1.67,0,0,1-1.54,1.12H10.64A1.67,1.67,0,0,1,9,56V14.64H47.06Z"
         id="path10" />
    </g>
  </g>
</svg>
