<?xml version="1.0" encoding="UTF-8" standalone="no"?>
<svg
   xmlns:dc="http://purl.org/dc/elements/1.1/"
   xmlns:cc="http://creativecommons.org/ns#"
   xmlns:rdf="http://www.w3.org/1999/02/22-rdf-syntax-ns#"
   xmlns:svg="http://www.w3.org/2000/svg"
   xmlns="http://www.w3.org/2000/svg"
   xmlns:sodipodi="http://sodipodi.sourceforge.net/DTD/sodipodi-0.dtd"
   xmlns:inkscape="http://www.inkscape.org/namespaces/inkscape"
   viewBox="0 0 48 60"
   x="0px"
   y="0px"
   version="1.1"
   id="svg12"
   sodipodi:docname="favicon.svg"
   inkscape:version="1.0.2-2 (e86c870879, 2021-01-15)">
  <metadata
     id="metadata18">
    <rdf:RDF>
      <cc:Work
         rdf:about="">
        <dc:format>image/svg+xml</dc:format>
        <dc:type
           rdf:resource="http://purl.org/dc/dcmitype/StillImage" />
      </cc:Work>
    </rdf:RDF>
  </metadata>
  <defs
     id="defs16" />
  <sodipodi:namedview
     pagecolor="#ffffff"
     bordercolor="#666666"
     borderopacity="1"
     objecttolerance="10"
     gridtolerance="10"
     guidetolerance="10"
     inkscape:pageopacity="0"
     inkscape:pageshadow="2"
     inkscape:window-width="1440"
     inkscape:window-height="837"
     id="namedview14"
     showgrid="false"
     inkscape:zoom="10.017346"
     inkscape:cx="25.046511"
     inkscape:cy="29.11718"
     inkscape:window-x="1912"
     inkscape:window-y="-8"
     inkscape:window-maximized="1"
     inkscape:current-layer="svg12"
     inkscape:document-rotation="0" />
  <title
     id="title2">expand-tool2</title>
  <g
     data-name="Layer 1"
     id="g6"
     transform="matrix(1.5704391,0,0,1.7340209,-13.391057,-10.828276)">
    <path
       d="M 34,7 H 10 V 41 H 38 V 7 Z m -2,2 v 10.92 l -4,-3.2 -4,3.2 V 9 Z m 4,30 H 12 V 9 h 10 v 15.08 l 6,-4.8 6,4.8 V 9 h 2 z"
       id="path4" />
  </g>
  <path
     style="fill:#00ffff;stroke-width:0.0823673"
     d="M 5.5208059,30.800027 V 4.8347527 h 7.7991531 7.799154 l 0.01985,13.0781433 0.01985,13.078143 4.389616,-3.875399 c 2.414288,-2.131471 4.533457,-4.0042 4.709265,-4.161619 l 0.319649,-0.286219 4.697054,4.141856 4.697053,4.141854 0.01985,-13.058379 0.01985,-13.0583803 h 1.528274 1.528273 V 30.800027 56.765302 H 24.29425 5.5208059 Z"
     id="path17" />
  <path
     style="fill:#0000ff;stroke-width:0.0823673"
     d="M 24.333443,14.226196 V 4.8347527 h 6.231686 6.231686 v 9.3526083 c 0,7.459472 -0.01983,9.339289 -0.09798,9.286816 -0.05388,-0.03619 -1.413416,-1.228249 -3.021169,-2.649029 -1.607751,-1.420781 -2.974461,-2.604966 -3.037135,-2.631519 -0.07147,-0.03029 -1.26817,0.971593 -3.210519,2.687864 l -3.096567,2.736146 z"
     id="path19" />
  <path
     style="fill:#00ffff;stroke-width:0.0998268"
     d="M 24.397637,14.158626 V 4.8592578 h 6.189264 6.189264 l -0.01117,8.3105842 c -0.0061,4.570822 -0.03984,8.727097 -0.07487,9.236169 l -0.0637,0.925585 -2.795152,-2.457571 C 32.29394,19.52236 30.935094,18.348267 30.811617,18.264928 30.59787,18.120665 30.552775,18.14146 29.870655,18.69882 c -0.394051,0.321979 -1.708069,1.45681 -2.92004,2.521846 -1.211971,1.065038 -2.282198,2.004133 -2.378281,2.086879 -0.166205,0.143135 -0.174697,-0.301615 -0.174697,-9.148919 z"
     id="path13" />
  <path
     style="fill:#0000ff;stroke-width:0.0998268"
     d="M 5.5303641,30.764323 V 4.8592578 h 7.7864939 7.786493 V 17.944892 c 0,7.628676 0.03714,13.071759 0.08907,13.05236 0.04899,-0.0183 2.159067,-1.86385 4.689061,-4.101219 2.529995,-2.237369 4.643893,-4.067944 4.697552,-4.067944 0.05366,0 2.177487,1.835248 4.719618,4.078329 l 4.622057,4.078328 0.065,-0.509519 c 0.03575,-0.280236 0.06944,-6.15847 0.07487,-13.062744 l 0.0099,-12.5532252 h 1.497402 1.497403 V 30.764323 56.669388 H 24.29781 5.5303641 Z"
     id="path15" />
  <path
     style="fill:#fff8dc;stroke-width:0.0998268;fill-opacity:1"
     d="M 5.5303641,30.764322 V 4.8592574 h 7.7864939 7.786493 V 17.936573 c 0,7.192524 0.03698,13.077317 0.08217,13.077317 0.04519,0 2.160052,-1.819345 4.69969,-4.042988 2.539638,-2.223642 4.649052,-4.042987 4.687586,-4.042987 0.09035,0 1.84356,1.514289 5.985653,5.169945 1.829374,1.614536 3.356724,2.904938 3.394112,2.867558 0.03739,-0.03738 0.07987,-5.926557 0.09439,-13.087062 L 40.07337,4.8592574 h 1.495943 1.495943 V 30.764322 56.669388 H 24.29781 5.5303641 Z"
     id="path14" />
  <path
     style="fill:#ffe4c4;fill-opacity:1;stroke-width:0.0998268"
     d="m 24.51107,22.921078 c -0.03494,-0.17468 -0.06352,-4.310049 -0.06352,-9.18971 V 4.8592574 h 6.139351 6.139351 l -0.01321,7.6617096 c -0.0073,4.213941 -0.04096,8.342308 -0.07487,9.174149 l -0.06166,1.512439 -1.247835,-1.094913 c -3.296493,-2.892507 -4.581787,-3.976415 -4.715221,-3.976415 -0.08004,0 -0.478131,0.277446 -0.884653,0.616547 -0.737243,0.614973 -4.398285,3.792027 -4.893294,4.246404 l -0.260918,0.239499 z"
     id="path841" />
</svg>
